<svg width="79" height="62" viewBox="0 0 79 62" fill="none" xmlns="http://www.w3.org/2000/svg">
<circle cx="1.40909" cy="1.40909" r="1.40909" fill="#DC7000"/>
<circle cx="9.86362" cy="1.40909" r="1.40909" fill="#DC7000"/>
<circle cx="18.3182" cy="1.40909" r="1.40909" fill="#DC7000"/>
<circle cx="26.7727" cy="1.40909" r="1.40909" fill="#DC7000"/>
<circle cx="35.2273" cy="1.40909" r="1.40909" fill="#DC7000"/>
<circle cx="43.6818" cy="1.40909" r="1.40909" fill="#DC7000"/>
<circle cx="52.1364" cy="1.40909" r="1.40909" fill="#DC7000"/>
<circle cx="60.5909" cy="1.40909" r="1.40909" fill="#DC7000"/>
<circle cx="69.0454" cy="1.40909" r="1.40909" fill="#DC7000"/>
<circle cx="77.5" cy="1.40909" r="1.40909" fill="#DC7000"/>
<circle cx="1.40909" cy="9.86368" r="1.40909" fill="#DC7000"/>
<circle cx="9.86362" cy="9.86368" r="1.40909" fill="#DC7000"/>
<circle cx="18.3182" cy="9.86368" r="1.40909" fill="#DC7000"/>
<circle cx="26.7727" cy="9.86368" r="1.40909" fill="#DC7000"/>
<circle cx="35.2273" cy="9.86368" r="1.40909" fill="#DC7000"/>
<circle cx="43.6818" cy="9.86368" r="1.40909" fill="#DC7000"/>
<circle cx="52.1364" cy="9.86368" r="1.40909" fill="#DC7000"/>
<circle cx="60.5909" cy="9.86368" r="1.40909" fill="#DC7000"/>
<circle cx="69.0454" cy="9.86368" r="1.40909" fill="#DC7000"/>
<circle cx="77.5" cy="9.86368" r="1.40909" fill="#DC7000"/>
<circle cx="1.40909" cy="18.3181" r="1.40909" fill="#DC7000"/>
<circle cx="9.86362" cy="18.3181" r="1.40909" fill="#DC7000"/>
<circle cx="18.3182" cy="18.3181" r="1.40909" fill="#DC7000"/>
<circle cx="26.7727" cy="18.3181" r="1.40909" fill="#DC7000"/>
<circle cx="35.2273" cy="18.3181" r="1.40909" fill="#DC7000"/>
<circle cx="43.6818" cy="18.3181" r="1.40909" fill="#DC7000"/>
<circle cx="52.1364" cy="18.3181" r="1.40909" fill="#DC7000"/>
<circle cx="60.5909" cy="18.3181" r="1.40909" fill="#DC7000"/>
<circle cx="69.0454" cy="18.3181" r="1.40909" fill="#DC7000"/>
<circle cx="77.5" cy="18.3181" r="1.40909" fill="#DC7000"/>
<circle cx="1.40909" cy="26.7727" r="1.40909" fill="#DC7000"/>
<circle cx="9.86362" cy="26.7727" r="1.40909" fill="#DC7000"/>
<circle cx="18.3182" cy="26.7727" r="1.40909" fill="#DC7000"/>
<circle cx="26.7727" cy="26.7727" r="1.40909" fill="#DC7000"/>
<circle cx="35.2273" cy="26.7727" r="1.40909" fill="#DC7000"/>
<circle cx="43.6818" cy="26.7727" r="1.40909" fill="#DC7000"/>
<circle cx="52.1364" cy="26.7727" r="1.40909" fill="#DC7000"/>
<circle cx="60.5909" cy="26.7727" r="1.40909" fill="#DC7000"/>
<circle cx="69.0454" cy="26.7727" r="1.40909" fill="#DC7000"/>
<circle cx="77.5" cy="26.7727" r="1.40909" fill="#DC7000"/>
<circle cx="1.40909" cy="35.2273" r="1.40909" fill="#DC7000"/>
<circle cx="9.86362" cy="35.2273" r="1.40909" fill="#DC7000"/>
<circle cx="18.3182" cy="35.2273" r="1.40909" fill="#DC7000"/>
<circle cx="26.7727" cy="35.2273" r="1.40909" fill="#DC7000"/>
<circle cx="35.2273" cy="35.2273" r="1.40909" fill="#DC7000"/>
<circle cx="43.6818" cy="35.2273" r="1.40909" fill="#DC7000"/>
<circle cx="52.1364" cy="35.2273" r="1.40909" fill="#DC7000"/>
<circle cx="60.5909" cy="35.2273" r="1.40909" fill="#DC7000"/>
<circle cx="69.0454" cy="35.2273" r="1.40909" fill="#DC7000"/>
<circle cx="77.5" cy="35.2273" r="1.40909" fill="#DC7000"/>
<circle cx="1.40909" cy="43.6818" r="1.40909" fill="#DC7000"/>
<circle cx="9.86362" cy="43.6818" r="1.40909" fill="#DC7000"/>
<circle cx="18.3182" cy="43.6818" r="1.40909" fill="#DC7000"/>
<circle cx="26.7727" cy="43.6818" r="1.40909" fill="#DC7000"/>
<circle cx="35.2273" cy="43.6818" r="1.40909" fill="#DC7000"/>
<circle cx="43.6818" cy="43.6818" r="1.40909" fill="#DC7000"/>
<circle cx="52.1364" cy="43.6818" r="1.40909" fill="#DC7000"/>
<circle cx="60.5909" cy="43.6818" r="1.40909" fill="#DC7000"/>
<circle cx="69.0454" cy="43.6818" r="1.40909" fill="#DC7000"/>
<circle cx="77.5" cy="43.6818" r="1.40909" fill="#DC7000"/>
<circle cx="1.40909" cy="52.1364" r="1.40909" fill="#DC7000"/>
<circle cx="9.86362" cy="52.1364" r="1.40909" fill="#DC7000"/>
<circle cx="18.3182" cy="52.1364" r="1.40909" fill="#DC7000"/>
<circle cx="26.7727" cy="52.1364" r="1.40909" fill="#DC7000"/>
<circle cx="35.2273" cy="52.1364" r="1.40909" fill="#DC7000"/>
<circle cx="43.6818" cy="52.1364" r="1.40909" fill="#DC7000"/>
<circle cx="52.1364" cy="52.1364" r="1.40909" fill="#DC7000"/>
<circle cx="60.5909" cy="52.1364" r="1.40909" fill="#DC7000"/>
<circle cx="69.0454" cy="52.1364" r="1.40909" fill="#DC7000"/>
<circle cx="77.5" cy="52.1364" r="1.40909" fill="#DC7000"/>
<circle cx="1.40909" cy="52.1364" r="1.40909" fill="#DC7000"/>
<circle cx="9.86362" cy="52.1364" r="1.40909" fill="#DC7000"/>
<circle cx="18.3182" cy="52.1364" r="1.40909" fill="#DC7000"/>
<circle cx="26.7727" cy="52.1364" r="1.40909" fill="#DC7000"/>
<circle cx="35.2273" cy="52.1364" r="1.40909" fill="#DC7000"/>
<circle cx="43.6818" cy="52.1364" r="1.40909" fill="#DC7000"/>
<circle cx="52.1364" cy="52.1364" r="1.40909" fill="#DC7000"/>
<circle cx="60.5909" cy="52.1364" r="1.40909" fill="#DC7000"/>
<circle cx="69.0454" cy="52.1364" r="1.40909" fill="#DC7000"/>
<circle cx="77.5" cy="52.1364" r="1.40909" fill="#DC7000"/>
<circle cx="1.40909" cy="60.5909" r="1.40909" fill="#DC7000"/>
<circle cx="9.86362" cy="60.5909" r="1.40909" fill="#DC7000"/>
<circle cx="18.3182" cy="60.5909" r="1.40909" fill="#DC7000"/>
<circle cx="26.7727" cy="60.5909" r="1.40909" fill="#DC7000"/>
<circle cx="35.2273" cy="60.5909" r="1.40909" fill="#DC7000"/>
<circle cx="43.6818" cy="60.5909" r="1.40909" fill="#DC7000"/>
<circle cx="52.1364" cy="60.5909" r="1.40909" fill="#DC7000"/>
<circle cx="60.5909" cy="60.5909" r="1.40909" fill="#DC7000"/>
<circle cx="69.0454" cy="60.5909" r="1.40909" fill="#DC7000"/>
<circle cx="77.5" cy="60.5909" r="1.40909" fill="#DC7000"/>
</svg>
