<svg width="1440" height="800" fill="none" xmlns="http://www.w3.org/2000/svg"><path d="M1233.41 454.601c65.11 60.734 154.88 65.27 206.59 56.75V799H398V590.195c10.027 0 27.299-4.102 44.217 0 37.659 9.129 82.141 78.642 119.909 87.112 92.026 20.641 188.4-127.712 188.4-127.712s67.817-86.979 113.765-139.753C909.218 358.241 951.735 329 1043.27 329c73.93 0 144.93 83.422 190.14 125.601Z" fill="#FFFAF4"/><path d="M287.099 398.545C197.248 469.164 73.359 474.438 2 464.532V799h1438V556.208c-13.84 0-37.67-4.769-61.02 0-51.97 10.616-113.36 91.442-165.48 101.292-127 24-260-148.5-260-148.5s-93.59-101.136-157-162.5c-62-60-120.676-94-247-94-102.022 0-200 97-262.401 146.045Z" fill="#FDF6EE"/><path d="M392 1c28.419 31.55 102.606 93.149 172.008 87.14C650.759 80.626 710 56 784.377 79.124c46.3 14.395 41.88 59.094 83.76 91.646s224.353-46.574 224.353-46.574 128.64-57.592 141.1 0c12.47 57.592-38.89 126.201-15.45 140.224 18.74 11.217 155.72-40.064 221.86-67.108" stroke="#E17A0E" stroke-opacity=".24"/><path d="M0 632.669c28.934-24.143 78.656-59.425 137.925-75.426C205.5 539 322.663 525.964 371.172 600.201 395.132 636.869 369.128 678.5 398 710.5c28.691 31.799 76.941 11.363 113.5 28.5 32 15 40.5 41.5 55.5 60" stroke="#E4E4E4"/><path d="M92.33 456.798c-.54-2.245 1.555-4.232 3.77-3.576l6.642 1.968c2.214.656 2.888 3.463 1.212 5.053l-5.025 4.769c-1.676 1.589-4.444.769-4.983-1.477l-1.616-6.737Z" fill="#9AB1EC"/><path d="M1165.47 669.936c-.54-2.246 1.55-4.233 3.77-3.577l6.64 1.968c2.21.657 2.89 3.464 1.21 5.053l-5.02 4.769c-1.68 1.589-4.45.769-4.99-1.476l-1.61-6.737Z" fill="#EC9AC1"/><path d="M882.467 226.936c-.539-2.246 1.555-4.233 3.769-3.577l6.643 1.968c2.214.657 2.888 3.464 1.213 5.053l-5.026 4.769c-1.676 1.589-4.443.769-4.982-1.476l-1.617-6.737Z" fill="#A6EC9A"/><circle cx="585.5" cy="183.5" r="4.5" fill="#FFD6D6"/><circle cx="1309.5" cy="144.5" r="4.5" fill="#F9D6FF"/><rect x="751.651" y="161.522" width="45.72" height="45.72" rx="10" transform="rotate(-35.996 751.651 161.522)" fill="#0CBE64"/></svg>