<svg width="65" height="65" fill="none" xmlns="http://www.w3.org/2000/svg"><circle cx="32.5" cy="32.5" r="32.5" fill="#DC7000" fill-opacity=".09"/><g clip-path="url(#a)" fill="#DC7000"><path d="M19.188 29.305a.532.532 0 0 0 .378-.154l2.13-2.13a.535.535 0 0 0-.756-.756l-2.13 2.13a.532.532 0 0 0 .378.91ZM19.188 32.5a.532.532 0 0 0 .378-.154l5.325-5.325a.535.535 0 0 0-.756-.756L18.81 31.59a.532.532 0 0 0 .378.91Z"/><path d="M46.877 16.526H33.032c-.882 0-1.597.715-1.597 1.597v5.857H19.188a2.662 2.662 0 0 0-2.663 2.663v13.844a2.662 2.662 0 0 0 2.663 2.663h5.857v2.13h-1.597a1.598 1.598 0 0 0 0 3.195h23.43c.881 0 1.596-.716 1.596-1.598V18.123c0-.882-.715-1.598-1.597-1.598Zm-27.69 8.52h19.17c.883 0 1.598.714 1.598 1.597v12.78H17.59v-12.78c0-.883.716-1.598 1.598-1.598ZM17.59 40.486h22.365c0 .883-.715 1.598-1.598 1.598h-19.17a1.597 1.597 0 0 1-1.597-1.598Zm8.52 2.663h5.325v2.13H26.11v-2.13Zm6.922 4.26h-9.584a.532.532 0 1 1 0-1.065h10.65a.532.532 0 1 1 0 1.065h-1.066Zm14.378-.533a.532.532 0 0 1-.533.533H35.6a1.598 1.598 0 0 0-1.502-2.13H32.5v-2.13h5.857a2.662 2.662 0 0 0 2.663-2.663V26.643a2.662 2.662 0 0 0-2.663-2.663H32.5v-5.857c0-.294.238-.533.532-.533h13.845c.294 0 .533.239.533.533v28.754Z"/><path d="M45.28 19.188H34.63c-.588 0-1.065.477-1.065 1.065v1.065c0 .588.477 1.065 1.065 1.065h10.65c.588 0 1.065-.477 1.065-1.065v-1.065c0-.588-.477-1.065-1.065-1.065Zm-10.65 2.13v-1.065h10.65v1.065H34.63ZM44.215 27.175a1.597 1.597 0 1 0 0-3.195 1.597 1.597 0 0 0 0 3.195Zm0-2.13a.532.532 0 1 1 0 1.065.532.532 0 0 1 0-1.065ZM45.812 29.838a1.597 1.597 0 1 0-3.195 0 1.597 1.597 0 0 0 3.195 0Zm-1.597.532a.532.532 0 1 1 0-1.065.532.532 0 0 1 0 1.065ZM37.292 44.215a.532.532 0 0 0-.532.532v1.065a.532.532 0 1 0 1.065 0v-1.065a.532.532 0 0 0-.533-.532ZM39.422 44.215a.532.532 0 0 0-.532.532v1.065a.532.532 0 1 0 1.065 0v-1.065a.532.532 0 0 0-.533-.532ZM41.552 44.215a.532.532 0 0 0-.532.532v1.065a.532.532 0 1 0 1.065 0v-1.065a.532.532 0 0 0-.533-.532ZM43.682 44.215a.532.532 0 0 0-.532.532v1.065a.532.532 0 1 0 1.065 0v-1.065a.532.532 0 0 0-.533-.532ZM45.812 44.215a.532.532 0 0 0-.532.532v1.065a.532.532 0 1 0 1.064 0v-1.065a.532.532 0 0 0-.532-.532Z"/></g><defs><clipPath id="a"><path fill="#fff" transform="translate(16.525 16.526)" d="M0 0h31.949v31.949H0z"/></clipPath></defs></svg>